<svg width="1064" height="586" viewBox="0 0 1064 586" fill="none" xmlns="http://www.w3.org/2000/svg">
<path d="M183.803 476L280.263 156.078H313.881L410.121 476H385.512L305.092 208.812C303.334 202.807 301.796 197.606 300.478 193.212C299.306 188.671 297.914 183.69 296.303 178.271H295.644C294.032 183.69 292.567 188.671 291.249 193.212C289.931 197.606 288.393 202.807 286.635 208.812L207.533 476H183.803ZM222.694 384.154L228.627 363.939H364.638L370.79 384.154H222.694ZM432.094 390.966V375.585H456.264V390.966C456.264 413.964 462.343 431.103 474.501 442.382C486.806 453.515 503.871 459.081 525.697 459.081C547.67 459.081 564.442 453.515 576.015 442.382C587.733 431.103 593.593 416.161 593.593 397.558C593.593 379.979 588.686 366.21 578.871 356.249C569.057 346.142 550.014 335.595 521.742 324.608C493.91 313.769 472.963 302.27 458.9 290.111C444.984 277.807 438.026 258.471 438.026 232.104C438.026 208.666 445.57 189.403 460.658 174.315C475.893 159.228 497.279 151.684 524.818 151.684C551.332 151.684 572.499 159.154 588.319 174.096C604.14 188.891 612.05 210.058 612.05 237.597V248.583H587.88V237.597C587.88 217.528 582.46 201.781 571.62 190.355C560.927 178.93 545.326 173.217 524.818 173.217C502.846 173.217 486.879 178.417 476.918 188.817C466.957 199.071 461.977 213.28 461.977 231.444C461.977 248.29 466.957 261.62 476.918 271.435C486.879 281.103 505.922 291.43 534.047 302.416C562.318 313.402 583.339 326.073 597.108 340.429C610.878 354.638 617.763 373.461 617.763 396.898C617.763 421.947 609.486 442.162 592.934 457.543C576.381 472.777 553.969 480.395 525.697 480.395C497.279 480.395 474.574 472.851 457.582 457.763C440.59 442.675 432.094 420.409 432.094 390.966ZM654.457 324.608V307.47C654.457 252.685 664.711 213.061 685.219 188.598C705.873 163.988 732.313 151.684 764.54 151.684C796.913 151.684 821.449 160.546 838.148 178.271C854.994 195.995 863.417 220.971 863.417 253.197V259.789H838.588V253.197C838.588 226.684 832.436 206.688 820.131 193.212C807.826 179.735 789.296 172.997 764.54 172.997C737.147 172.997 716.054 183.983 701.259 205.956C686.464 227.929 679.066 261.767 679.066 307.47V324.608C679.066 369.872 686.757 403.563 702.138 425.683C717.665 447.802 738.905 458.861 765.858 458.861C789.735 458.861 807.826 452.416 820.131 439.525C832.436 426.488 838.588 406.273 838.588 378.881V372.289H863.417V381.078C863.417 411.547 855.141 435.717 838.588 453.588C822.035 471.312 797.206 480.175 764.101 480.175C728.798 480.175 701.698 467.724 682.802 442.821C663.905 417.772 654.457 378.368 654.457 324.608Z" fill="black"/>
<path d="M139.648 540.172C109.701 540.172 86.1816 530.488 69.0918 511.119C52.002 491.751 47.2005 466.523 54.6875 435.436L66.1621 383.678C70.7194 363.333 68.0339 349.905 58.1055 343.395C48.1771 336.884 34.668 333.629 17.5781 333.629V314.098C34.668 314.098 48.1771 310.842 58.1055 304.332C68.0339 297.822 70.7194 284.394 66.1621 264.049L54.6875 212.291C47.2005 181.204 52.002 155.976 69.0918 136.607C86.1816 117.239 109.701 107.555 139.648 107.555V127.086C116.374 127.086 99.2839 134.736 88.3789 150.035C77.6367 165.335 75.2767 186.493 81.2988 213.512L92.7734 265.27C96.0286 278.941 94.6452 290.986 88.623 301.402C82.7637 311.819 71.7773 319.306 55.6641 323.863C71.7773 328.421 82.7637 335.908 88.623 346.324C94.4824 356.741 95.8659 368.785 92.7734 382.457L81.2988 434.215C75.2767 461.233 77.6367 482.392 88.3789 497.691C99.2839 512.991 116.374 520.641 139.648 520.641V540.172Z" fill="#3B3B3B"/>
<path d="M923.986 540.172V520.641C947.098 520.641 964.107 512.991 975.012 497.691C986.079 482.392 988.602 461.233 982.58 434.215L971.105 382.457C968.013 368.785 969.396 356.741 975.256 346.324C981.115 335.908 992.102 328.421 1008.21 323.863C992.102 319.306 981.115 311.819 975.256 301.402C969.396 290.986 968.013 278.941 971.105 265.27L982.58 213.512C988.602 186.493 986.079 165.335 975.012 150.035C964.107 134.736 947.098 127.086 923.986 127.086V107.555C954.26 107.555 977.779 117.239 994.543 136.607C1011.47 155.976 1016.43 181.204 1009.44 212.291L997.717 264.049C993.16 284.394 995.764 297.822 1005.53 304.332C1015.46 310.842 1028.97 314.098 1046.06 314.098V333.385C1028.97 333.385 1015.46 336.64 1005.53 343.15C995.764 349.661 993.16 363.17 997.717 383.678L1009.44 435.436C1016.43 466.523 1011.47 491.751 994.543 511.119C977.779 530.488 954.26 540.172 923.986 540.172Z" fill="#3B3B3B"/>
</svg>
